<svg xmlns="http://www.w3.org/2000/svg" width="611.786" height="593.408"><title>Half Sun</title><metadata id="metadata20">image/svg+xmlkeep out sunlight protection uv ultraviolet ultra-violet burns beach hut building structure rays summer heat sign symbol</metadata><g><title>Layer 1</title><g id="layer1"><g id="g32373"><path id="path2270" fill="none" fill-rule="evenodd" stroke="#fddf00" stroke-linecap="round" stroke-miterlimit="4" stroke-width="20" d="m308.232971,9.99969c0,81.47965 0,81.47965 0,81.47965"/><path id="path5180" fill="#fddf00" stroke-miterlimit="4" stroke-width=".043" d="m356.789825,177.00708a48.575459,50.00116 0 1 1 -97.150909,0a48.575459,50.00116 0 1 1 97.150909,0z"/><path id="path10042" fill="none" fill-rule="evenodd" stroke="#fddf00" stroke-linecap="round" stroke-linejoin="round" stroke-miterlimit="4" stroke-width="19.503" d="m356.627441,108.594017c49.602325,-72.459438 49.602325,-72.459438 49.602325,-72.459438"/><path id="path12953" fill="none" fill-rule="evenodd" stroke="#fddf00" stroke-linecap="round" stroke-linejoin="round" stroke-miterlimit="4" stroke-width="20.209" d="m388.675751,149.045715c143.71994,-52.291382 143.71994,-52.291382 143.71994,-52.291382"/><path id="path19748" fill="none" fill-rule="evenodd" stroke="#fddf00" stroke-linecap="round" stroke-linejoin="round" stroke-miterlimit="4" stroke-width="20" d="m308.214294,263.43576c0,126.785706 0,126.785706 0,126.785706"/><path id="path20719" fill="none" fill-rule="evenodd" stroke="#fddf00" stroke-linecap="round" stroke-linejoin="round" stroke-miterlimit="4" stroke-width="19.446" d="m364.365753,244.587189c216.625641,256.268524 216.625641,256.268524 216.625641,256.268524"/><path id="path21690" fill="none" fill-rule="evenodd" stroke="#fddf00" stroke-linecap="round" stroke-linejoin="round" stroke-miterlimit="4" stroke-width="19.09" d="m390.973358,200.837646c211.267548,56.267609 211.267548,56.267609 211.267548,56.267609"/></g></g></g></svg>